<?xml version="1.0" standalone="no"?>
<!DOCTYPE svg PUBLIC "-//W3C//DTD SVG 20010904//EN"
 "http://www.w3.org/TR/2001/REC-SVG-20010904/DTD/svg10.dtd">
<svg version="1.0" xmlns="http://www.w3.org/2000/svg"
 width="512.000000pt" height="512.000000pt" viewBox="0 0 512.000000 512.000000"
 preserveAspectRatio="xMidYMid meet">

<g transform="translate(0.000000,512.000000) scale(0.100000,-0.100000)"
fill="#000000" stroke="none">
<path d="M452 5100 c-109 -29 -187 -74 -272 -160 -87 -86 -131 -163 -160 -276
-20 -76 -20 -118 -20 -2104 0 -1986 0 -2028 20 -2104 29 -113 73 -190 160
-276 86 -87 163 -131 276 -160 76 -20 118 -20 2104 -20 1986 0 2028 0 2104 20
113 29 190 73 276 160 87 86 131 163 160 276 20 76 20 118 20 2104 0 1986 0
2028 -20 2104 -29 113 -73 190 -160 276 -86 87 -163 131 -276 160 -76 20 -117
20 -2108 19 -1967 0 -2033 -1 -2104 -19z m4171 -409 c21 -13 50 -42 65 -64
l27 -41 3 -1500 2 -1500 -372 370 c-362 361 -375 372 -458 413 -190 93 -361
93 -550 0 -73 -37 -103 -60 -227 -182 l-144 -141 -342 341 c-331 329 -345 342
-427 382 -190 92 -360 93 -550 0 -84 -41 -89 -46 -667 -622 l-583 -581 0 1489
c0 1018 3 1502 11 1528 13 47 77 113 121 126 21 6 793 9 2043 8 l2010 -2 38
-24z m-2625 -2266 c25 -11 183 -162 504 -483 l468 -467 267 267 c177 177 281
272 305 283 50 20 104 19 153 -4 27 -13 203 -182 533 -513 l493 -494 -3 -240
c-3 -231 -4 -240 -27 -277 -13 -21 -42 -50 -64 -65 l-41 -27 -2026 0 -2026 0
-41 27 c-22 15 -51 44 -64 65 -23 37 -24 46 -27 267 l-3 230 703 704 c478 479
716 710 743 723 49 23 103 24 153 4z"/>
<path d="M3092 4300 c-109 -29 -187 -74 -272 -160 -87 -86 -131 -163 -160
-276 -36 -141 -18 -294 52 -427 42 -81 164 -203 245 -245 133 -70 286 -88 427
-52 113 29 190 73 276 160 87 86 131 163 160 276 36 141 18 294 -52 427 -42
81 -164 203 -245 245 -132 69 -291 88 -431 52z m258 -414 c59 -39 85 -89 85
-166 0 -78 -26 -127 -88 -168 -56 -37 -153 -39 -210 -3 -76 47 -111 140 -88
229 14 51 75 117 123 131 53 16 135 6 178 -23z"/>
</g>
</svg>
